<?xml version="1.0" encoding="UTF-8" standalone="no"?>
<!DOCTYPE svg PUBLIC "-//W3C//DTD SVG 1.1//EN" "http://www.w3.org/Graphics/SVG/1.1/DTD/svg11.dtd">
<svg width="100%" height="100%" viewBox="0 0 1086 1086" version="1.1" xmlns="http://www.w3.org/2000/svg" xmlns:xlink="http://www.w3.org/1999/xlink" xml:space="preserve" xmlns:serif="http://www.serif.com/" style="fill-rule:evenodd;clip-rule:evenodd;stroke-linecap:round;stroke-linejoin:round;stroke-miterlimit:1.5;">
    <g transform="matrix(1,0,0,1,-533,-10682)">
        <g transform="matrix(1,0,0,1,32.443,-0.91335)">
            <g transform="matrix(4.69247,0,0,4.15935,-2380.49,10146)">
                <g transform="matrix(0.213108,0,0,0.240422,-5631.1,-4007.35)">
                    <path d="M30389.8,17310.8C30389.8,17252.7 30342.6,17205.6 30284.5,17205.6L29410.2,17205.6C29352.1,17205.6 29305,17252.7 29305,17310.8L29305,18185.1C29305,18243.2 29352.1,18290.4 29410.2,18290.4L30284.5,18290.4C30342.6,18290.4 30389.8,18243.2 30389.8,18185.1L30389.8,17310.8Z" style="fill:rgb(0,108,255);"/>
                </g>
                <g transform="matrix(0.213108,0,0,0.240422,407.818,73.3014)">
                    <g>
                        <g transform="matrix(1,0,0,1,-1181.15,-77.1774)">
                            <path d="M2603.44,739.043L2603.44,1164.9C2603.44,1213.3 2642.73,1252.59 2691.13,1252.59C2739.53,1252.59 2778.82,1213.3 2778.82,1164.9L2778.82,1036.42" style="fill:none;stroke:white;stroke-width:50px;"/>
                        </g>
                        <g transform="matrix(1,0,0,1,-1181.15,-77.1774)">
                            <path d="M2778.82,817.893L2778.82,539.684C2778.82,491.287 2739.53,451.994 2691.13,451.994C2642.73,451.994 2603.44,491.287 2603.44,539.684L2603.44,638.671" style="fill:none;stroke:white;stroke-width:50px;"/>
                        </g>
                    </g>
                    <g transform="matrix(1,0,0,1,-1181.15,-77.1774)">
                        <path d="M2778.82,958.085L2778.82,926.006" style="fill:none;stroke:white;stroke-width:50px;"/>
                    </g>
                </g>
            </g>
        </g>
    </g>
</svg>
